<?xml version="1.0" standalone="no"?>
<!DOCTYPE svg PUBLIC "-//W3C//DTD SVG 20010904//EN"
 "http://www.w3.org/TR/2001/REC-SVG-20010904/DTD/svg10.dtd">
<svg version="1.0" xmlns="http://www.w3.org/2000/svg"
 width="204.000000pt" height="192.000000pt" viewBox="0 0 204.000000 192.000000"
 preserveAspectRatio="xMidYMid meet">

<g transform="translate(0.000000,192.000000) scale(0.100000,-0.100000)"
fill="#000000" stroke="none">
<path d="M1487 1689 c7 -7 15 -10 18 -7 3 3 -2 9 -12 12 -14 6 -15 5 -6 -5z"/>
<path d="M1524 1649 c0 -13 3 -15 13 -7 7 6 13 12 13 13 0 2 -6 5 -13 8 -7 3
-13 -3 -13 -14z"/>
<path d="M1445 1613 c4 -21 7 -40 7 -43 1 -3 -7 -23 -16 -44 -10 -21 -18 -48
-19 -60 -1 -12 -14 -33 -29 -48 -16 -15 -28 -34 -28 -43 0 -8 -4 -15 -10 -15
-5 0 -10 -6 -10 -13 0 -7 -12 -24 -26 -36 -22 -19 -28 -21 -36 -10 -7 10 -8 9
-4 -5 5 -15 2 -17 -14 -13 -12 3 -18 1 -14 -5 3 -5 17 -7 30 -4 13 4 24 2 24
-3 0 -5 -17 -12 -37 -16 -36 -8 -37 -8 -13 -15 21 -7 17 -8 -20 -10 -25 -1
-51 -2 -57 -1 -7 1 -13 -5 -13 -14 0 -8 5 -15 12 -15 6 0 9 -2 7 -5 -3 -2 -19
-1 -37 4 -23 7 -34 6 -42 -4 -6 -8 -21 -16 -33 -18 -21 -4 -21 -4 1 -6 13 0
21 -5 17 -11 -3 -5 -13 -6 -23 -3 -15 6 -15 5 -3 -10 9 -11 10 -17 2 -17 -6 0
-11 -7 -11 -16 0 -8 5 -12 10 -9 6 3 10 -3 10 -15 0 -13 -4 -19 -12 -14 -8 5
-9 -2 -5 -27 4 -19 4 -29 -1 -24 -9 12 -42 16 -42 5 0 -5 8 -11 18 -13 13 -4
11 -5 -5 -6 -22 -1 -27 8 -24 36 2 18 -77 26 -139 14 -44 -8 -57 -7 -65 4 -8
9 -21 11 -45 6 -35 -7 -110 5 -110 19 0 8 36 27 65 34 11 3 -2 4 -30 4 -73 -1
-87 1 -81 11 3 5 -3 11 -14 14 -12 3 -20 14 -20 26 0 14 -6 21 -20 21 -11 0
-23 7 -26 15 -4 8 -14 15 -24 15 -20 0 -70 72 -110 157 -14 29 -31 52 -38 53
-7 0 -11 4 -7 9 3 5 1 12 -5 16 -5 3 -10 15 -10 26 0 12 -5 19 -12 17 -23 -8
-103 -164 -122 -238 -11 -41 -21 -80 -23 -86 -2 -6 5 -14 16 -17 20 -5 35 -45
44 -119 4 -29 1 -37 -14 -41 -14 -4 -19 0 -19 16 0 30 -15 51 -30 42 -9 -6
-11 -26 -6 -72 9 -83 -1 -138 -20 -122 -8 6 -14 18 -14 26 0 8 -7 27 -15 43
-16 31 -54 40 -85 20 -17 -11 -17 -120 1 -255 15 -112 30 -145 68 -145 16 0
33 4 36 10 3 5 29 10 57 10 36 0 54 5 63 17 11 14 17 9 55 -43 104 -141 227
-236 395 -303 155 -62 214 -74 330 -69 84 5 116 11 200 43 55 20 108 46 117
57 11 12 24 18 34 14 22 -9 117 57 195 135 81 82 153 189 186 277 14 37 33 87
43 112 10 25 21 62 25 82 8 42 12 44 105 54 110 11 115 22 79 165 -24 98 -41
134 -71 150 -29 15 -91 6 -127 -20 -28 -21 -32 -21 -55 -6 -54 35 -114 225
-71 225 21 0 19 7 -9 41 -29 34 -42 27 -19 -10 17 -26 17 -26 -15 3 -32 29
-41 43 -22 31 6 -3 10 -2 10 3 0 13 -26 33 -33 26 -3 -4 -23 7 -44 23 -21 16
-55 36 -77 46 l-38 18 7 -38z m499 -387 c16 -15 29 -48 40 -97 25 -116 25
-124 -4 -125 -14 0 -35 -6 -47 -12 -52 -29 -93 2 -93 69 0 29 7 43 31 63 17
14 35 26 40 26 15 0 10 20 -6 27 -9 3 -25 -3 -36 -13 -19 -17 -20 -17 -41 4
l-22 22 23 24 c21 22 40 30 79 35 7 0 24 -10 36 -23z m-176 -33 c21 -18 44
-94 57 -185 l7 -48 -34 0 -34 0 -13 72 c-16 88 -20 98 -35 98 -35 -1 -38 -15
-21 -100 9 -45 13 -86 8 -90 -4 -5 -21 -10 -37 -12 -28 -3 -29 -2 -48 87 -34
162 -34 161 -2 168 16 3 33 2 38 -3 5 -5 20 -1 34 10 31 25 54 25 80 3z m-470
-19 c2 -1 -1 -19 -8 -38 -10 -32 -14 -35 -39 -30 -16 3 -38 1 -50 -6 -32 -16
-12 -35 52 -50 63 -15 84 -32 98 -80 23 -76 -36 -140 -129 -140 -75 0 -81 4
-69 49 10 37 11 38 43 28 26 -8 38 -7 59 7 33 22 20 42 -34 52 -54 10 -89 31
-107 65 -31 61 0 131 64 145 15 3 32 7 37 9 10 3 77 -5 83 -11z m240 -40 c23
-16 52 -74 52 -104 0 -14 -14 -20 -65 -30 -67 -13 -75 -19 -50 -40 16 -14 65
-6 77 13 8 13 48 -18 48 -38 0 -17 -76 -49 -115 -49 -49 0 -82 22 -105 69 -23
47 -25 78 -9 124 21 61 115 92 167 55z m-748 -98 c0 -2 -7 -7 -16 -10 -8 -3
-12 -2 -9 4 6 10 25 14 25 6z m166 -32 c7 -8 19 -45 28 -81 9 -36 23 -81 31
-99 16 -39 11 -44 -44 -49 -20 -1 -47 -7 -59 -14 -37 -20 -79 -13 -101 15 -38
49 -21 100 46 136 37 21 42 27 29 37 -12 10 -20 7 -47 -18 -18 -17 -34 -31
-37 -31 -3 0 -2 3 1 7 4 3 -3 17 -15 30 l-22 23 20 21 c45 45 143 58 170 23z
m131 0 c-3 -3 -12 -4 -19 -1 -8 3 -5 6 6 6 11 1 17 -2 13 -5z m-325 -46 c-2
-15 -8 -28 -12 -28 -4 0 -5 -19 -3 -42 6 -50 -19 -85 -68 -95 -56 -11 -41 -24
25 -21 75 3 93 -8 102 -63 8 -48 -22 -84 -91 -105 -45 -15 -58 -15 -85 -4 -37
15 -53 50 -41 83 5 14 5 30 -1 40 -5 10 -8 28 -6 40 1 13 -7 36 -20 51 -43 55
-16 137 50 150 12 2 43 9 68 14 74 15 87 12 82 -20z m366 -5 c3 -31 2 -32 -52
-44 -31 -7 -58 -10 -61 -7 -3 2 -8 18 -11 35 -6 28 -4 30 38 40 68 17 83 13
86 -24z m-852 -73 c12 -47 34 -116 48 -154 14 -39 23 -73 21 -77 -3 -4 -18 -9
-34 -11 -28 -4 -30 -2 -60 81 l-31 86 3 -92 2 -93 -28 -6 c-16 -3 -30 -4 -32
-2 -2 2 -20 37 -40 78 l-36 75 7 -55 c13 -97 11 -115 -12 -118 -17 -2 -22 5
-33 50 -6 29 -15 106 -18 171 -5 104 -4 117 10 119 10 0 22 1 28 2 5 1 30 -48
53 -108 l44 -109 7 110 c7 115 10 126 35 136 34 13 43 1 66 -83z m211 26 c28
-24 59 -97 49 -115 -3 -5 -29 -11 -58 -15 -64 -9 -72 -13 -54 -32 18 -17 50
-18 77 -1 17 10 22 9 35 -8 8 -10 13 -24 11 -30 -11 -34 -120 -47 -162 -19
-27 18 -55 81 -55 125 0 61 51 118 107 119 12 0 35 -11 50 -24z m307 -12 c3
-8 2 -12 -4 -9 -6 3 -10 10 -10 16 0 14 7 11 14 -7z m611 -554 c3 -5 2 -17 -3
-26 -5 -10 -12 -12 -15 -7 -6 10 -26 7 -109 -13 -19 -4 -25 -11 -21 -23 4 -13
3 -14 -5 -1 -9 12 -14 12 -31 -5 -12 -10 -23 -16 -26 -13 -9 9 74 61 128 79
60 21 74 23 82 9z m-321 -86 c9 -3 16 -11 16 -16 0 -6 -7 -8 -15 -4 -10 3 -15
-1 -15 -12 -1 -16 -1 -16 -11 1 -13 23 -81 23 -104 1 -13 -14 -14 -19 -3 -26
12 -8 5 -7 -70 8 -32 6 -23 25 19 40 36 13 156 18 183 8z"/>
<path d="M1911 1091 c-17 -11 -10 -46 9 -46 17 0 26 33 13 46 -4 4 -14 4 -22
0z"/>
<path d="M1452 1078 c-24 -24 -14 -38 18 -26 17 5 29 15 27 22 -5 16 -30 19
-45 4z"/>
<path d="M882 858 c-18 -18 -14 -38 7 -38 24 0 33 13 25 34 -7 19 -16 20 -32
4z"/>
<path d="M614 895 c-8 -20 2 -44 21 -52 24 -8 39 12 31 41 -7 29 -43 36 -52
11z"/>
<path d="M657 693 c-25 -24 9 -48 48 -33 38 14 32 40 -8 40 -19 0 -37 -3 -40
-7z"/>
<path d="M411 857 c-19 -19 -12 -35 14 -29 14 2 25 10 25 17 0 18 -25 26 -39
12z"/>
<path d="M1540 1625 c-11 -13 -10 -14 5 -9 13 5 16 4 11 -4 -5 -8 -2 -10 8 -6
9 3 16 2 16 -4 0 -5 7 -12 15 -16 11 -4 8 4 -7 24 -25 34 -31 36 -48 15z"/>
<path d="M316 1532 c-3 -5 1 -9 9 -9 8 0 12 4 9 9 -3 4 -7 8 -9 8 -2 0 -6 -4
-9 -8z"/>
<path d="M1730 1364 c0 -12 7 -27 15 -34 19 -16 19 -3 0 30 -13 24 -14 24 -15
4z"/>
<path d="M965 1240 c2 -14 5 -28 5 -31 0 -4 7 -10 16 -13 13 -5 14 -4 6 7 -6
7 -16 24 -22 38 l-11 24 6 -25z"/>
<path d="M756 1215 c4 -8 8 -15 10 -15 2 0 4 7 4 15 0 8 -4 15 -10 15 -5 0 -7
-7 -4 -15z"/>
<path d="M1130 1219 c0 -5 5 -7 10 -4 6 3 10 8 10 11 0 2 -4 4 -10 4 -5 0 -10
-5 -10 -11z"/>
<path d="M668 1213 c7 -3 16 -2 19 1 4 3 -2 6 -13 5 -11 0 -14 -3 -6 -6z"/>
<path d="M940 1205 c0 -5 5 -17 10 -25 5 -8 10 -10 10 -5 0 6 -5 17 -10 25 -5
8 -10 11 -10 5z"/>
<path d="M1018 1173 c7 -3 16 -2 19 1 4 3 -2 6 -13 5 -11 0 -14 -3 -6 -6z"/>
<path d="M860 1149 c-37 -5 -39 -6 -13 -7 17 -1 35 -6 38 -12 3 -5 12 -10 18
-9 8 0 7 3 -2 6 -11 4 -11 7 0 14 21 12 8 15 -41 8z"/>
<path d="M925 1130 c3 -5 11 -10 16 -10 6 0 7 5 4 10 -3 6 -11 10 -16 10 -6 0
-7 -4 -4 -10z"/>
</g>
</svg>
